<svg xmlns="http://www.w3.org/2000/svg" viewBox="0 0 16 16"><defs><style>.cls-1{fill:#19573e;}</style></defs><g id="Capa_2" data-name="Capa 2"><g id="Capa_1-2" data-name="Capa 1"><path class="cls-1" d="M6.1,3.87A2.5,2.5,0,0,1,6.65.44a2.3,2.3,0,0,1,2.73,0,2.49,2.49,0,0,1,.53,3.4h0a1.21,1.21,0,0,0,.25,1.64,1.12,1.12,0,0,0,1.59-.25h0A2.31,2.31,0,0,1,15,4.67a2.49,2.49,0,0,1,.88,2.86A2.32,2.32,0,0,1,12.93,9h0a1.09,1.09,0,0,0-1.26.41,1.19,1.19,0,0,0,.56,1.82h0a2.45,2.45,0,0,1,1.53,3A2.37,2.37,0,0,1,11.3,16a2.4,2.4,0,0,1-2.16-2.42h0a1.14,1.14,0,1,0-2.28,0h0A2.39,2.39,0,0,1,4.49,16a2.35,2.35,0,0,1-2.21-1.65,2.45,2.45,0,0,1,1.5-3.1h0a1.19,1.19,0,0,0,.73-1.49A1.13,1.13,0,0,0,3.08,9h0a2.33,2.33,0,0,1-3-1.58A2.49,2.49,0,0,1,1,4.73a2.31,2.31,0,0,1,3.31.53h0a1.11,1.11,0,0,0,1.59.26,1.2,1.2,0,0,0,.25-1.64"/></g></g></svg>