<svg xmlns="http://www.w3.org/2000/svg" viewBox="0 0 46.48 9.55"><defs><style>.cls-1{fill:#ead9bb;}</style></defs><g id="Capa_2" data-name="Capa 2"><g id="Capa_1-2" data-name="Capa 1"><path class="cls-1" d="M44.56,0c.29,0,.73.13,1.32.25a1.8,1.8,0,0,1,.6.44c0,.11-.35.34-1,.69S41.2,3.22,35,5.72Q31.63,7.1,27.51,8.9a5.6,5.6,0,0,1-1.8.56,3.58,3.58,0,0,1-1.26-.27A3,3,0,0,1,23,9.55a4.29,4.29,0,0,1-1.81-.4Q17.37,8,11.24,5.77q-7-2.55-9.82-3.45C.48,2.07,0,1.85,0,1.67a3.92,3.92,0,0,1,.66-.52A3,3,0,0,1,1.59.88c.18,0,.84.17,2,.44q1.32.39,12.72,3.51,2.52.75,7.07,2.06l.88.26.71-.34A63.35,63.35,0,0,1,33.65,3.7,95.14,95.14,0,0,0,42.86.56,5.57,5.57,0,0,1,44.56,0Z"/></g></g></svg>