<svg xmlns="http://www.w3.org/2000/svg" viewBox="0 0 187.52 96.81"><defs><style>.cls-1,.cls-3{fill:none;stroke:#ead9bb;stroke-miterlimit:10;}.cls-2{fill:#ead9bb;}.cls-3{stroke-width:2px;}</style></defs><g id="Capa_2" data-name="Capa 2"><g id="Capa_1-2" data-name="Capa 1"><line class="cls-1" y1="94.18" x2="52.15" y2="94.18"/><line class="cls-1" x1="134.35" y1="94.18" x2="186.49" y2="94.18"/><path class="cls-2" d="M89.81,7.64a4.81,4.81,0,1,1,7.77,0h0a2.33,2.33,0,0,0,3.76,2.75h0a4.81,4.81,0,1,1,2.42,7.41h0a2.32,2.32,0,0,0-1.44,4.42h0A4.81,4.81,0,1,1,96,26.8v0a2.29,2.29,0,0,0-1.57-2.2,2.35,2.35,0,0,0-3.09,2.2h0a4.81,4.81,0,1,1-6.3-4.58h0a2.33,2.33,0,0,0-1.43-4.43h0A4.81,4.81,0,1,1,86,10.38l0,0a2.32,2.32,0,0,0,3.76-2.73"/><path class="cls-2" d="M14.67,71a1.46,1.46,0,0,0,1-.36,3.72,3.72,0,0,0,.7-.83,8.4,8.4,0,0,0,.59-1.2h.15l-.71,2.85H.13v-.23a1.66,1.66,0,0,0,1.2-.48,1.6,1.6,0,0,0,.49-1.18V53.2A1.61,1.61,0,0,0,1.33,52a1.67,1.67,0,0,0-1.2-.49v-.23H6.06v.23A1.62,1.62,0,0,0,4.88,52a1.61,1.61,0,0,0-.49,1.19V71Z"/><path class="cls-2" d="M30,51.07a10.37,10.37,0,0,1,7.35,3,10.49,10.49,0,0,1,2.26,3.35,10.37,10.37,0,0,1,0,7.89,10.6,10.6,0,0,1-2.26,3.35,10.42,10.42,0,0,1-14.71,0,10.6,10.6,0,0,1-2.26-3.35,10.37,10.37,0,0,1,0-7.89A10.45,10.45,0,0,1,26,51.85,10.38,10.38,0,0,1,30,51.07Zm3.4,19.59a6.75,6.75,0,0,0,3.56-2.84A8.52,8.52,0,0,0,38.1,63.5a12.89,12.89,0,0,0-.82-4.75,13.19,13.19,0,0,0-2.45-4.17A8.65,8.65,0,0,0,31.13,52,7.14,7.14,0,0,0,23,55a8.62,8.62,0,0,0-1.18,4.32A12.89,12.89,0,0,0,22.63,64a13.19,13.19,0,0,0,2.45,4.17,8.74,8.74,0,0,0,3.7,2.55A6.82,6.82,0,0,0,33.36,70.66Z"/><path class="cls-2" d="M64.19,51.15h4.23v.23a1.63,1.63,0,0,0-1.2.49A1.56,1.56,0,0,0,66.73,53V69.45a1.59,1.59,0,0,0,.49,1.17,1.67,1.67,0,0,0,1.2.49v.22H62.49v-.22a1.62,1.62,0,0,0,1.18-.49,1.59,1.59,0,0,0,.49-1.17V52.25l-9.49,19.4L45.1,53.49v16a1.59,1.59,0,0,0,.49,1.17,1.62,1.62,0,0,0,1.18.49v.22H43v-.22a1.64,1.64,0,0,0,1.18-.49,1.59,1.59,0,0,0,.49-1.17V53a1.6,1.6,0,0,0-.49-1.18A1.63,1.63,0,0,0,43,51.37v-.23h3.79l9,17.16,8.35-17.09v-.06Z"/><path class="cls-2" d="M84.56,59.83a6.4,6.4,0,0,1,3.81,2,5.77,5.77,0,0,1,.57,6.69,5.78,5.78,0,0,1-2.29,2.14,7.33,7.33,0,0,1-3.51.79H71.33v-.23A1.66,1.66,0,0,0,73,69.6V53.2A1.61,1.61,0,0,0,72.51,52a1.62,1.62,0,0,0-1.18-.49v-.23l11.29,0a4.8,4.8,0,0,1,3.46,1.32,4.37,4.37,0,0,1-1.52,7.2Zm-3-.12a2.72,2.72,0,0,0,1.78-.58,3.7,3.7,0,0,0,1.08-1.48,5.18,5.18,0,0,0,0-3.82,3.58,3.58,0,0,0-1.08-1.48,2.76,2.76,0,0,0-1.79-.57h-6v7.93ZM81.24,71a6.3,6.3,0,0,0,3.3-.79,5.19,5.19,0,0,0,2-2,5.45,5.45,0,0,0,0-5.2,5.19,5.19,0,0,0-2-2,6.3,6.3,0,0,0-3.3-.79H75.57V71Z"/><path class="cls-2" d="M110.44,69.9a2.39,2.39,0,0,0,.9,1,2.33,2.33,0,0,0,1.28.37v.23h-5.91v-.23a.92.92,0,0,0,.81-.44,1,1,0,0,0,.07-1l-2.73-5.77H96.48L94,69.77a1,1,0,0,0,.09,1,1,1,0,0,0,.9.48v.23H91.22v-.23a2.53,2.53,0,0,0,2.29-1.49l8.09-18.51Zm-10-15-3.81,8.72h8Z"/><path class="cls-2" d="M131.11,70.26a2.61,2.61,0,0,0,2.07,1v.23h-5.91v-.23a.64.64,0,0,0,.61-.37.68.68,0,0,0-.06-.72l-4.9-6.34h-3.15v5.77a1.67,1.67,0,0,0,1.69,1.66v.23h-5.93v-.23a1.67,1.67,0,0,0,1.67-1.66V53.21a1.67,1.67,0,0,0-1.67-1.66v-.23l10.43,0a6.59,6.59,0,0,1,5.71,3.13,5.85,5.85,0,0,1,.88,3.15,5.93,5.93,0,0,1-1.8,4.35,6.71,6.71,0,0,1-4.59,1.94Zm-8.54-6.87h3.23a4,4,0,0,0,2.37-1,5.39,5.39,0,0,0,1.41-2.19,7.8,7.8,0,0,0,.43-2.77,7.61,7.61,0,0,0-.55-2.74,5.07,5.07,0,0,0-1.53-2.1,3.85,3.85,0,0,0-2.5-.81h-5.66V63.39Z"/><path class="cls-2" d="M151.92,54.26a9.77,9.77,0,0,1,2,3.23,11.09,11.09,0,0,1,0,7.81,9.67,9.67,0,0,1-2,3.23,9.52,9.52,0,0,1-3.2,2.16,11,11,0,0,1-4.2.8H136.1v-.23a1.63,1.63,0,0,0,1.18-.48,1.6,1.6,0,0,0,.49-1.18V53.2a1.61,1.61,0,0,0-.49-1.19,1.64,1.64,0,0,0-1.18-.49v-.23h8.42a10.77,10.77,0,0,1,4.2.81A9.24,9.24,0,0,1,151.92,54.26ZM144.52,71a6.62,6.62,0,0,0,3.33-.81A7.33,7.33,0,0,0,150.23,68a10.11,10.11,0,0,0,1.43-3.1,13.14,13.14,0,0,0,.47-3.54,13,13,0,0,0-.47-3.52,10.11,10.11,0,0,0-1.43-3.1,7.22,7.22,0,0,0-2.38-2.19,6.53,6.53,0,0,0-3.33-.83h-4.18V71Z"/><path class="cls-2" d="M157.28,51.29h5.93v.23A1.62,1.62,0,0,0,162,52a1.61,1.61,0,0,0-.49,1.19V69.6a1.66,1.66,0,0,0,1.67,1.66v.23h-5.93v-.23A1.66,1.66,0,0,0,159,69.6V53.2a1.61,1.61,0,0,0-.49-1.19,1.62,1.62,0,0,0-1.18-.49Z"/><path class="cls-2" d="M185.35,69.9a2.39,2.39,0,0,0,.9,1,2.3,2.3,0,0,0,1.27.37v.23h-5.91v-.23a.92.92,0,0,0,.82-.44,1,1,0,0,0,.06-1l-2.73-5.77h-8.37l-2.47,5.65a1.1,1.1,0,0,0,.09,1,1,1,0,0,0,.9.48v.23h-3.79v-.23a2.5,2.5,0,0,0,2.29-1.49l8.1-18.51Zm-10-15-3.8,8.72h8Z"/><line class="cls-3" x1="157.27" y1="49.82" x2="163.2" y2="49.82"/><path class="cls-2" d="M72.9,90.88H75v.78H73.75v1.7h1.13v.77H73.75V96H75v.78H72.9Z"/><path class="cls-2" d="M78,96.66v-.85a1.38,1.38,0,0,0,.74.22c.4,0,.6-.24.6-.71v0a1.2,1.2,0,0,0-.13-.55,3,3,0,0,0-.45-.66,3.93,3.93,0,0,1-.63-1,2.21,2.21,0,0,1-.18-.89,1.54,1.54,0,0,1,.34-1,1.21,1.21,0,0,1,1-.37,2.14,2.14,0,0,1,.74.13v.83a1.74,1.74,0,0,0-.64-.18c-.34,0-.51.21-.51.64v0a1.13,1.13,0,0,0,.13.54,3.24,3.24,0,0,0,.44.66,4.34,4.34,0,0,1,.63,1,2.25,2.25,0,0,1,.18.89,1.58,1.58,0,0,1-.36,1.11,1.28,1.28,0,0,1-1,.39A2.48,2.48,0,0,1,78,96.66Z"/><path class="cls-2" d="M83.87,91.7h-.82v-.82h2.5v.82h-.82v5h-.86Z"/><path class="cls-2" d="M88.28,96.66a.53.53,0,0,1,0-.74.5.5,0,0,1,.37-.15.52.52,0,1,1,0,1A.5.5,0,0,1,88.28,96.66Z"/><path class="cls-2" d="M92.19,96.05l.72-1.51a5.86,5.86,0,0,0,.44-1.13,3.53,3.53,0,0,0,.16-1v0a1.09,1.09,0,0,0-.14-.62.51.51,0,0,0-.44-.19,1.12,1.12,0,0,0-.35.06,1.35,1.35,0,0,0-.34.17V91a1.79,1.79,0,0,1,.86-.2,1.18,1.18,0,0,1,.93.34,1.6,1.6,0,0,1,.3,1.06,4.21,4.21,0,0,1-.2,1.25A8.93,8.93,0,0,1,93.51,95L93,96h1.3v.77H92.19Z"/><path class="cls-2" d="M97.89,96.51a2.06,2.06,0,0,1-.39-1,8.93,8.93,0,0,1-.13-1.74,9.11,9.11,0,0,1,.13-1.75,2.06,2.06,0,0,1,.39-1,1,1,0,0,1,1.45,0,2,2,0,0,1,.39,1,9.11,9.11,0,0,1,.13,1.75,8.93,8.93,0,0,1-.13,1.74,2,2,0,0,1-.39,1,1,1,0,0,1-1.45,0Zm1-.64a2.07,2.07,0,0,0,.13-.68c0-.31,0-.76,0-1.34v-.08c0-.58,0-1,0-1.34a2.07,2.07,0,0,0-.13-.68c-.06-.14-.14-.21-.25-.21a.29.29,0,0,0-.26.21,2.37,2.37,0,0,0-.13.68c0,.31,0,.76,0,1.34v.08c0,.58,0,1,0,1.34a2.37,2.37,0,0,0,.13.68.29.29,0,0,0,.26.21C98.73,96.08,98.81,96,98.87,95.87Z"/><path class="cls-2" d="M102.8,96.05l.73-1.51a6.53,6.53,0,0,0,.43-1.13,3.53,3.53,0,0,0,.16-1v0a1.09,1.09,0,0,0-.14-.62.5.5,0,0,0-.44-.19,1.12,1.12,0,0,0-.35.06,1.35,1.35,0,0,0-.34.17V91a1.8,1.8,0,0,1,.87-.2,1.16,1.16,0,0,1,.92.34,1.6,1.6,0,0,1,.31,1.06,4.25,4.25,0,0,1-.21,1.25,8.93,8.93,0,0,1-.62,1.53l-.48,1H105v.77H102.8Z"/><path class="cls-2" d="M107.92,96.05l.72-1.51a6.59,6.59,0,0,0,.44-1.13,4,4,0,0,0,.16-1v0a1.09,1.09,0,0,0-.14-.62.51.51,0,0,0-.44-.19,1.13,1.13,0,0,0-.36.06,1.29,1.29,0,0,0-.33.17V91a1.73,1.73,0,0,1,.86-.2,1.19,1.19,0,0,1,.93.34,1.6,1.6,0,0,1,.3,1.06,4.56,4.56,0,0,1-.2,1.25,9.83,9.83,0,0,1-.62,1.53l-.48,1h1.3v.77h-2.14Z"/></g></g></svg>